<svg xmlns="http://www.w3.org/2000/svg" viewBox="0 0 48 48"><defs><radialGradient id="a" cx="24.326" cy="6.042" r="26.659" fx="24.326" fy="6.042" gradientUnits="userSpaceOnUse"><stop offset=".006" stop-color="#feeb72"/><stop offset=".316" stop-color="#fde86f"/><stop offset=".515" stop-color="#fcdf68"/><stop offset=".684" stop-color="#fbd05c"/><stop offset=".835" stop-color="#f9bb4b"/><stop offset=".974" stop-color="#f6a134"/><stop offset="1" stop-color="#f69b30"/></radialGradient></defs><path fill="#56606a" d="m32,36c0,3.31-3.59,6-8,6s-8-2.69-8-6c0-.55.45-1,1-1h14c.55,0,1,.45,1,1Z"/><path fill="url(#a)" d="m40.89,36.45c-.17.34-.51.55-.89.55H8c-.38,0-.73-.21-.89-.55-.17-.34-.14-.75.09-1.05,1.81-2.41,2.8-5.39,2.8-8.4v-7c0-7.72,6.28-14,14-14s14,6.28,14,14v7c0,3.01.99,5.99,2.8,8.4.23.3.26.71.09,1.05Z"/></svg>