<svg xmlns="http://www.w3.org/2000/svg" xmlns:xlink="http://www.w3.org/1999/xlink" viewBox="0 0 48 48"><defs><linearGradient id="a" x1="17.066" x2="17.066" y1="5.716" y2="41.34" gradientUnits="userSpaceOnUse"><stop offset=".006" stop-color="#d0e1e7"/><stop offset="1" stop-color="#afc2cc"/></linearGradient><linearGradient id="b" x1="29.512" x2="29.512" y1="5.716" y2="41.34" xlink:href="#a"/></defs><circle cx="24" cy="24" r="18" fill="#56606a"/><path fill="url(#a)" d="m28.11,39.46c-.34-6.8-4.49-4.84-7.11-7.46-2.55-2.55-.65-5.43-3-7-3-2-5.21.13-7-3-1.63-2.85-.28-6.35,1.9-9.51,1.34-1.95,2.99-3.77,4.45-5.21-2.29.91-4.35,2.28-6.06,3.99l-.0099.01c-3.26,3.26-5.28,7.76-5.28,12.72,0,9.92,8.07,18,18,18,.28,0,.56-.01.84-.02.56-.02,1.11-.08,1.65-.16h.01c.54-.07,1.08-.18,1.6-.3.04-.77.04-1.45.01-2.06Zm-4.12,4.94c.12-.83-.01-1.46,0,0h0Z"/><path fill="url(#b)" d="m28.83,41.33c1.17-.3199,2.29-.7599,3.35-1.31,1.95-.99,3.7-2.34,5.15-3.95,2.9-3.19,4.67-7.43,4.67-12.07,0-.11,0-.22-.01-.32-.14-8.23-5.84-15.14-13.5-17.11h-.01c-1.43-.37-2.93-.57-4.48-.57-.2,0-.41,0-.61.01.73.43,1.61.94,2.63,1.54.61.26,1.18.55,1.66.89.64.44,1.12.96,1.32,1.56.71,2.12-2.11,3.21-3,5-1,2,1,3,0,4-.3.3-.64.42-1.02.42-1.37,0-3.18-1.57-5.04-1.57-.31,0-.63.05-.94.15-3,1-2.24,4,0,4,.5,0,1.5-.25,2.38-.25.87,0,1.62.25,1.62,1.25,0,.93.86,1.5,2.02,1.5.61,0,1.29-.16,1.98-.5.73-.36,1.25-.54,1.69-.54.77,0,1.31.54,2.31,1.54,1.14,1.14,2.41,1.59,3.22,2.33l.64,3.48c-.6,3.12.0347,4.9205-1.7547,6.9268-2.0842,2.3368-4.2752,3.5931-4.2752,3.5931Z"/></svg>